<!-- Generator: Adobe Illustrator 22.1.0, SVG Export Plug-In  -->
<svg version="1.1"
	 xmlns="http://www.w3.org/2000/svg" xmlns:xlink="http://www.w3.org/1999/xlink" xmlns:a="http://ns.adobe.com/AdobeSVGViewerExtensions/3.0/"
	 x="0px" y="0px" width="392px" height="95px" viewBox="-5 -5 391 100" style="enable-background:new 0 0 322.3 87.5;"
	 xml:space="preserve">
     <style type="text/css">
    .st0 {
        fill: none;
        stroke: #000000;
        stroke-width: 3;
        stroke-linecap: round;
        stroke-linejoin: round;
        stroke-miterlimit: 10;
        stroke-dasharray: 658;
        stroke-dashoffset: 658;
        animation: drawStroke 2.5s linear 0s forwards, fillAnimation 1s linear 2s forwards;
    }
	.st1{fill:none;stroke:#000000;stroke-width:3;stroke-linecap:round;stroke-linejoin:round;stroke-miterlimit:10;
	stroke-dasharray: 349;
    stroke-dashoffset: 349;
    animation: draw 1.2s linear 2s forwards, fillAnimation 1s linear 3s forwards;
		}
	.st2{fill:none;stroke:#000000;stroke-width:3;stroke-linecap:round;stroke-linejoin:round;stroke-miterlimit:10;
	stroke-dasharray: 288;
    stroke-dashoffset: 288;
    animation: draw 0.8s linear 2.5s forwards, fillAnimation 1s linear 3s forwards;
		}
	.st3{fill:none;stroke:#000000;stroke-width:3;stroke-linecap:round;stroke-linejoin:round;stroke-miterlimit:10;
	stroke-dasharray: 245;
    stroke-dashoffset: 245;
    animation: draw 1.2s linear 3s forwards, fillAnimation 0.8s linear 3.2s forwards;
		}        
	.st4{fill:none;stroke:#000000;stroke-width:3;stroke-linecap:round;stroke-linejoin:round;stroke-miterlimit:10;
	stroke-dasharray: 48;
    stroke-dashoffset: 48;
    animation: draw 1s linear 3s forwards, fillAnimation 0.5s linear 3s forwards;
		}
	.st5{fill:none;stroke:#000000;stroke-width:3;stroke-linecap:round;stroke-linejoin:round;stroke-miterlimit:10;
	stroke-dasharray: 265;
    stroke-dashoffset: 265;
    animation: draw 1.2s linear 4s forwards, fillAnimation 1s linear 5s forwards;
		}
	.st6{fill:none;stroke:#000000;stroke-width:3;stroke-linecap:round;stroke-linejoin:round;stroke-miterlimit:10;
	stroke-dasharray: 221;
    stroke-dashoffset: 221;
    animation: draw 1.2s linear 5s forwards, fillAnimation 1s linear 6s forwards;
		}
    .st7{fill:none;stroke:#000000;stroke-width:3;stroke-linecap:round;stroke-linejoin:round;stroke-miterlimit:10;
	stroke-dasharray: 205;
    stroke-dashoffset: 205;
    animation: draw 1.3s linear 6s forwards, fillAnimation 1s linear 6.5s forwards;
		}
    @keyframes draw {
		to {
			stroke-dashoffset: 5;
		}
	}
    @keyframes drawStroke {
        0% {
            stroke-dashoffset: 658; /* 描边未开始 */
        }
        100% {
            stroke-dashoffset: 0; /* 描边完成 */
        }
    }
    @keyframes fillAnimation {
        0% {
            fill: transparent; /* 开始时填充透明 */
            stroke-dashoffset: 48; /* 重置为路径的总长度 */
        }
        100% {
            fill: #000000; /* 结束时填充为黑色 */
            stroke-dashoffset: 0; /* 完全填充路径 */
        }
    }
</style>
<defs>
</defs>
<g>
	<path class="st0" d="M20.4,60.7c0.8-1,1.4-2.1,1.8-3.3c0.4-1.2,0.6-2.6,0.6-4.2V16.5l-4.2,1.8v-1.4c4.8-2.2,8.7-4,11.7-5.6
		c3-1.6,5.3-2.8,6.7-3.9v-6l1.3-0.2v5.4c1.1-0.6,2.3-1.3,3.6-2.2c1.3-0.9,2.7-1.9,4.2-3.1C51,4.1,54.7,8,57.2,12.8
		c2.5,4.9,3.8,10.6,3.8,17.3c0,4.6-0.6,9-1.7,13.4c-1.1,4.4-2.7,8.3-4.8,11.7c-3.2,5.3-6.9,9.1-11,11.7c-4.1,2.5-8.8,3.8-14.2,3.8
		c-3.7,0-7.2-0.7-10.4-2s-6.2-3.3-8.8-6c-3.4-3.4-5.9-7.1-7.6-11.3C0.9,47.2,0,42.7,0,37.9c0-7.6,1.9-14.8,5.8-21.6
		c3.9-6.8,8.9-11.7,15-14.8c-3.6,4-6.3,8.7-7.9,14.3c-1.6,5.5-2.4,12.6-2.4,21.3c0,10.8,1.6,18.8,4.9,24c3.2,5.2,8.2,7.9,14.8,7.9
		c1,0,2.1-0.1,3.2-0.3c1.1-0.2,2.3-0.6,3.6-1V9.1l-5.4,2.8v36.5c0,3.9-0.8,6.7-2.4,8.4C27.5,58.4,24.6,59.8,20.4,60.7z M38.3,24.9
		c0.9,0.4,1.8,0.7,2.7,0.9c0.9,0.2,2,0.3,3.1,0.3c1.2,0,2.3-0.1,3.2-0.3c1-0.2,1.9-0.5,2.8-1c-0.8-3.5-2-6.7-3.7-9.7
		c-1.7-3-3.8-5.7-6.2-8.1l-1.9,1.3V24.9z M38.3,26.6v21.7c0.9-0.3,1.9-0.5,2.8-0.6c0.9-0.1,1.9-0.2,2.9-0.2c1.1,0,2.3,0.1,3.3,0.3
		c1.1,0.2,2.1,0.6,3.1,1c0.4-2,0.8-4,1-6c0.2-2.1,0.3-4.2,0.3-6.5c0-2-0.1-3.8-0.3-5.4c-0.2-1.6-0.5-3.1-0.9-4.5c-1,0.4-2,0.7-3,0.8
		c-1,0.2-2,0.3-3.1,0.3c-1.1,0-2.2-0.1-3.1-0.2C40.2,27.1,39.2,26.9,38.3,26.6z M38.3,49.6v17.5c3-1.3,5.5-3.3,7.4-6.1
		c1.9-2.8,3.4-6.4,4.4-11c-1.1-0.4-2.2-0.8-3.2-1c-1-0.2-2.1-0.3-3.2-0.3c-0.9,0-1.8,0.1-2.7,0.2C40,49.2,39.1,49.4,38.3,49.6z"/>
	<path class="st1" d="M66.3,65.5c0.2-1.5,0.7-2.8,1.5-3.8c0.9-1,2.1-1.9,3.8-2.7V16.3c0-2.5-0.2-4.2-0.6-5.4c-0.4-1.1-1.1-2.2-2.2-3.2
		c2.5-0.7,4.8-1.7,6.9-2.9c2.2-1.2,4.4-2.8,6.6-4.7c-0.9,2.6-1.6,5.4-2,8.3s-0.6,6.6-0.6,11.1v14.3L93.9,22c1.1,2,2.3,3.5,3.5,4.5
		c1.2,1,2.5,1.4,3.9,1.4c0.6,0,1.2-0.1,1.7-0.3c0.6-0.2,1.2-0.5,1.9-0.9c-0.2,1.4-0.5,2.6-1.2,3.6c-0.6,1-1.6,2-2.8,2.9v24.5
		c0,1.8,0.1,3.3,0.4,4.5c0.3,1.2,0.7,2.3,1.3,3.5c-0.9-0.2-1.8-0.4-2.6-0.6c-0.8-0.1-1.6-0.2-2.4-0.2c-1.6,0-3.1,0.4-4.3,1.3
		C92.1,67,91.5,68,91.5,69c0,0.9,0.9,2.4,2.8,4.6c1.8,2.2,2.8,4.3,2.8,6.3c0,2.1-0.7,3.8-2,5.2c-1.3,1.4-3,2.2-5,2.3
		c0.9-0.8,1.6-1.7,2.1-2.8c0.5-1.1,0.7-2.4,0.7-3.8c0-2.1-0.5-4.4-1.4-6.9c-0.9-2.6-1.4-4.1-1.4-4.5c0-0.9,0.4-2,1.3-3.2
		c0.9-1.2,1.3-2.4,1.3-3.7v-28c-1-0.2-1.9-0.7-2.8-1.4c-0.9-0.7-1.9-1.8-3.1-3.3l-7.1,5.8V59c1.2,0.5,2.4,1.1,3.6,1.9
		c1.1,0.7,2.2,1.5,3.3,2.4c-2.1,1-3.9,2.1-5.5,3.2c-1.6,1.1-3,2.4-4.3,3.7c-0.9-1.6-2.1-2.9-3.5-3.9c-1.5-1-3-1.5-4.5-1.5
		c-0.2,0-0.6,0-0.9,0.1C67.5,65.1,67,65.3,66.3,65.5z"/>
	<path class="st2" d="M133.2,61.6l-9.2,8.5c-3.9-1.3-7-3.2-9.3-5.8c-2.3-2.5-3.4-5.3-3.4-8.4c0-3,0.9-5.7,2.6-8.4c1.8-2.6,4.2-4.8,7.4-6.5
		l-9.9-12.6h0.2c1.5,0,3.1-0.5,4.7-1.6c1.7-1.1,3.4-2.7,5.2-4.8c0.7,2.5,1.6,4.5,2.6,5.8c1,1.3,2.1,1.9,3.4,1.9
		c1.4,0,2.9-0.6,4.5-1.9c1.6-1.3,3.3-3.3,5.2-6c0.1,1.8,0.7,3.3,1.7,4.4c1,1.1,2.2,1.7,3.7,1.7c0.3,0,0.7-0.1,1.1-0.2
		c0.5-0.1,1-0.3,1.5-0.5c-0.2,0.9-0.6,1.7-1.2,2.5c-0.6,0.8-1.6,1.6-2.8,2.5v21.7c0,2.6,0.5,4.5,1.4,5.7c0.9,1.2,2.3,1.7,4.3,1.7h1
		l-7.1,8.8c-2.1-0.9-3.7-2.1-4.9-3.4C134.7,65.6,133.8,63.8,133.2,61.6z M132.8,60V34.8c-0.8-0.4-1.5-0.9-2.1-1.5
		c-0.6-0.6-1.2-1.4-1.8-2.5c-1.5,0.7-2.9,1.3-4.1,1.6c-1.3,0.4-2.4,0.6-3.4,0.6c-0.9,0-1.9-0.2-2.8-0.5c-0.9-0.3-2-0.8-3.1-1.5
		l13.9,17.8l-1.3,0.9l-5.7-7.3c-1,1.5-1.8,2.9-2.2,4.3c-0.5,1.4-0.7,2.9-0.7,4.4c0,3,0.9,5.4,2.8,7.5c1.8,2,4.4,3.4,7.7,4L132.8,60z
		"/>
	<path class="st3" d="M150.9,65.7c0.2-1.5,0.8-2.8,1.6-4c0.8-1.1,2-2.2,3.6-3.2V36.8c0-1.6-0.2-3-0.5-4.2c-0.3-1.2-0.9-2.4-1.6-3.7
		c0.5,0,1,0.1,1.6,0.1c0.6,0,1.4,0,2.4,0c4.2,0,8.2-0.6,12-1.8c3.8-1.2,7.3-3,10.5-5.4c0.8,2.1,1.8,3.7,3.1,4.8
		c1.2,1.1,2.6,1.7,4.1,1.7c0.3,0,0.8-0.1,1.6-0.3c0.2-0.1,0.4-0.1,0.5-0.1c-0.4,1-0.9,1.9-1.5,2.7c-0.6,0.7-1.3,1.4-2.2,2.1v20.8
		c0,2.1,0.2,4,0.5,5.6c0.3,1.6,0.8,3.3,1.5,4.9c-1.6-0.2-2.9-0.4-3.7-0.5c-0.8-0.1-1.5-0.1-2.1-0.1c-3.5,0-6.8,0.6-9.9,1.8
		c-3,1.2-6.1,3-9.2,5.6c-1.3-1.6-2.8-2.9-4.4-3.8c-1.6-0.9-3.2-1.4-4.8-1.4c-0.4,0-0.9,0-1.4,0.1C152,65.5,151.5,65.6,150.9,65.7z
		 M164.6,57.9c1.6,0.6,3,1.4,4.1,2.3c1.1,0.9,2.1,2.1,2.9,3.4c0.7-0.2,1.4-0.4,2.3-0.7c0.9-0.2,2.1-0.5,3.7-0.8l0-28.1
		c-1.4-0.3-2.7-0.9-3.8-1.7c-1.1-0.9-2.3-2.1-3.4-3.7c-0.4,0.1-0.9,0.2-1.6,0.5c-1.9,0.5-3.3,0.9-4.2,1.1V57.9z"/>
	<path class="st4" d="M194.5,65.3l6.8-8.1c1.4,2.1,2.7,3.5,3.8,4.4c1.1,0.9,2.3,1.3,3.5,1.3c0.3,0,0.7-0.1,1.1-0.2c0.4-0.1,1-0.3,1.7-0.6
		c-1.4,2.9-2.8,4.9-4.2,6.2c-1.4,1.2-3,1.9-4.9,1.9c-1.5,0-3-0.4-4.3-1.2C196.8,68.1,195.6,66.9,194.5,65.3z"/>
	<path class="st5" d="M227.8,70.2c-1.2-2-2.8-3.6-4.7-4.7c-1.9-1.1-3.8-1.7-5.8-1.7c-0.4,0-0.7,0-0.9,0c-0.2,0-0.5,0-0.7,0
		c0.6-1.1,1.4-2,2.3-2.8c0.9-0.8,2.1-1.5,3.4-2.1V38.3c0-2.7-0.4-4.5-1.3-5.4c-0.9-0.9-2.6-1.5-5.2-1.7c2.3-1.4,4.1-2.9,5.6-4.4
		c1.5-1.5,2.8-3.2,3.8-5.1c2,1.1,3.4,2.7,4.2,4.8c0.8,2.1,1.3,5.1,1.3,9v0.9l17.1-14.2c0.7,2,1.6,3.4,2.6,4.4c1,0.9,2.3,1.4,3.8,1.4
		c0.2,0,0.3,0,0.6,0c0.2,0,0.5-0.1,0.9-0.2c-0.3,1-0.8,1.9-1.5,2.7c-0.6,0.8-1.5,1.5-2.5,2.2v21.7c0,2.5,0.5,4.2,1.6,5.3
		c1.1,1.1,2.9,1.7,5.3,1.8c-1.5,1.3-2.8,2.7-4.1,4.1c-1.3,1.5-2.5,3-3.7,4.7c-2.8-0.7-4.8-2-5.9-3.7c-1.1-1.7-1.7-4.7-1.7-9V34.1
		c-0.7-0.4-1.3-0.9-2-1.4c-0.6-0.6-1.2-1.2-1.9-1.9l-8.8,7.6v20.5c1.7,0.6,3,1.2,4,1.8c1,0.7,1.8,1.5,2.5,2.5
		c-1.8,0.8-3.3,1.8-4.7,2.9C230.2,67.3,228.9,68.6,227.8,70.2z"/>
	<path class="st6" d="M260.7,66.5c0-1.7,0.4-3.2,1.2-4.4s2-2.1,3.7-2.8V36.6c0-1.7-0.2-3.2-0.7-4.5c-0.4-1.3-1.1-2.4-2.1-3.5h3.3
		c3.5,0,7-0.6,10.4-1.9c3.5-1.3,6.2-2.9,8.2-4.8c0.9,3,2.2,6,3.8,8.8c1.6,2.8,3.5,5.4,5.6,7.7L274,52.2v6.2c2.5,0.3,4.8,0.8,6.9,1.5
		c2.1,0.7,3.8,1.6,5.3,2.7l2.7-2.1l0.9,1.1l-10.4,9.2c-2-1.7-4.1-3-6.5-4s-4.8-1.4-7.2-1.4c-0.9,0-1.7,0.1-2.5,0.2
		C262.3,65.9,261.5,66.1,260.7,66.5z M276.8,28.1l-2.8,0.7v21.5l11.4-7.6L276.8,28.1z"/>
	<path class="st7" d="M299.3,66.4c0.3-1.3,0.9-2.5,1.8-3.4c0.9-0.9,2-1.8,3.6-2.5V30.2h-0.8c-1.5,0-2.8,0.1-3.9,0.4c-1.1,0.2-2,0.6-2.8,1.1
		c0.1-0.4,0.1-0.9,0.2-1.6c0.1-1,0.2-1.6,0.2-1.9c0-0.4,0-0.9-0.1-1.4c0-0.5-0.1-1.4-0.3-2.5c0.8,0.4,1.8,0.7,2.8,0.8
		c1,0.2,2.1,0.3,3.3,0.3h1.4v-1.7c0-2.1-0.2-3.8-0.7-5.1c-0.5-1.3-1.3-2.4-2.5-3.5c2.5-0.2,5-1,7.2-2.1s4.7-2.9,7.2-5.3l0.7,0.7
		c-1.3,1.4-2.2,3.1-2.7,5s-0.8,5-0.8,9.1v2.9h1.4c1.2,0,2.3-0.1,3.3-0.3c1-0.2,1.9-0.5,2.7-0.8c0,0.1-0.1,0.3-0.1,0.6
		c-0.2,1.5-0.3,2.5-0.3,3.2c0,0.6,0.1,1.5,0.2,2.7c0.1,0.4,0.1,0.8,0.1,1c-0.8-0.5-1.7-0.9-2.8-1.1c-1.1-0.2-2.4-0.4-3.8-0.4h-0.8
		v28.3c1.3,0.4,2.4,1,3.4,1.7c1,0.7,1.8,1.7,2.7,2.9l2.4-1.7l0.8,1.3c-2.5,1.8-4.6,3.4-6.3,5s-2.9,2.8-3.4,3.7c-0.8-1.6-2-2.9-3.7-4
		c-1.6-1-3.4-1.5-5.2-1.5c-0.6,0-1.3,0-2,0.1S300.1,66.2,299.3,66.4z"/>
</g>
</svg>
